# xmcd
# 
# Track frame offsets:
#     150
#     22964
#     43814
#     64955
#     79934
#     101420
#     121113
#     137656
#     152640
#     176564
#     194792
#     210135
#     225710
#     244785
#     260386
#     277964
#     295823
#     315651
#     331145
#     344018
# 
# Disc length: 4791
# 
# Revision: 1
# Processed by: cddbd v1.5.2PL0 Copyright (c) Steve Scherf et al.
# Submitted via: fre:ac v1.0.31
# 
DISCID=1f12b514
DTITLE=Various Artist - 80's Dancefloor - The Collection CD 1
DYEAR=2014
DGENRE=80s
TTITLE0=A-Ha - The Sun Always Shines On TV
TTITLE1=Ultravox - Dancing With Tears In My Eyes
TTITLE2=Duran Duran - Rio
TTITLE3=Spandau Ballet - To Cut A Long Story Short
TTITLE4=Communards - Don't Leave Me This Way
TTITLE5=Simply Red - Money's Too Tight (To Mention)
TTITLE6=Fleetwood Mac - Everywhere
TTITLE7=Talk Talk - Talk Talk
TTITLE8=New Order - Temptation
TTITLE9=Bronski Beat - Why?
TTITLE10=Kim Wilde - Kids In America
TTITLE11=Joy Division - Disorder
TTITLE12=Christopher Cross - All Right
TTITLE13=Fuzzbox - International Rescue
TTITLE14=Nick Kamen - I Promised Myself
TTITLE15=Blancmange - Living On The Ceiling
TTITLE16=Climie Fisher - Love Changes Everything
TTITLE17=Bananarama - Cruel Summer
TTITLE18=Fun Boy Three - Our Lips Are Sealed
TTITLE19=Mari Wilson - Just What I Always Wanted
EXTD=
EXTT0=
EXTT1=
EXTT2=
EXTT3=
EXTT4=
EXTT5=
EXTT6=
EXTT7=
EXTT8=
EXTT9=
EXTT10=
EXTT11=
EXTT12=
EXTT13=
EXTT14=
EXTT15=
EXTT16=
EXTT17=
EXTT18=
EXTT19=
PLAYORDER=
